<?xml version="1.0" encoding="iso-8859-1"?>
<!-- Generator: Adobe Illustrator 21.0.2, SVG Export Plug-In . SVG Version: 6.00 Build 0)  -->
<svg xmlns="http://www.w3.org/2000/svg" xmlns:xlink="http://www.w3.org/1999/xlink" version="1.1" id="Layer_1" x="0px" y="0px" viewBox="0 0 48 48" style="enable-background:new 0 0 48 48;" xml:space="preserve" width="48px" height="48px">
<path style="fill:#FF6F02;" d="M31,7.002l13,1.686L33.296,19L31,7.002z"/>
<path style="fill:#FF6F02;" d="M17,41L4,39.314L14.704,29L17,41z"/>
<path style="fill:#FF6F00;" d="M8,24c0-8.837,7.163-16,16-16c1.024,0,2.021,0.106,2.992,0.29l0.693-3.865  C26.525,4.112,25.262,4.005,24,4.005c-11.053,0-20,8.947-20,20c0,4.844,1.686,9.474,4.844,13.051l3.037-2.629  C9.468,31.625,8,27.987,8,24z"/>
<path style="fill:#FF6F00;" d="M39.473,11.267l-3.143,2.537C38.622,16.572,40,20.125,40,24c0,8.837-7.163,16-16,16  c-1.029,0-2.033-0.106-3.008-0.292l-0.676,3.771c1.262,0.21,2.525,0.317,3.684,0.317c11.053,0,20-8.947,20-20  C44,19.375,42.421,14.848,39.473,11.267z"/>
</svg>
